<?xml version="1.0" ?>
<svg data-name="Слой 1" id="Слой_1" viewBox="0 0 32 32" xmlns="http://www.w3.org/2000/svg">
<path fill="white" d="M7.2013,22.325v5.6235a.4854.4854,0,1,0,.9707,0v-5.626a6.5834,6.5834,0,0,0,4.28-1.9927,8.5931,8.5931,0,0,0,2.0322,2.1914v5.4273a.4854.4854,0,1,0,.9707,0V22.5129c.1788-.1347.3482-.2841.5176-.4345a4.6049,4.6049,0,0,0,6.0576.3v5.57a.4854.4854,0,1,0,.9707,0V21.6477a4.6621,4.6621,0,1,0,4.0225-8.1846,4.6527,4.6527,0,0,0-8.7715-.915A8.5883,8.5883,0,0,0,15.25,8.7219a.4845.4845,0,0,0-.5606,0,8.59,8.59,0,0,0-2.2387,2.354,6.6421,6.6421,0,1,0-5.25,11.2491Zm.9707-.9742V19.3162l2.1685-1.8848.9829.6411a.43.43,0,0,0,.1011.03c.0566.1938.1152.3872.186.5776a8.025,8.025,0,0,0,.3413.7525A5.6191,5.6191,0,0,1,8.172,21.3508Zm2.9737-4.6191c.0029.0239.0068.0474.01.0713l-.0522-.0342ZM22.4836,10.8a3.7307,3.7307,0,0,1,3.6611,3.13c.001.0064.0054.0113.0063.0176a1.5287,1.5287,0,0,0,.0708.1743.501.501,0,0,0,.06.064.4928.4928,0,0,0,.0684.0664.486.486,0,0,0,.0805.0376.4618.4618,0,0,0,.0933.0371l.0147.0059A3.7044,3.7044,0,1,1,23.14,20.48a.4358.4358,0,0,0-.0683-.05.494.494,0,0,0-.044-.04c-.0063-.0034-.0132-.0029-.02-.0064l-.0069-.0053v-1.919l2.4327-2.9863A.4859.4859,0,0,0,24.68,14.86l-1.6788,2.0611V15.2981a.4854.4854,0,1,0-.9707,0v3.9233L20.11,16.8626a.4859.4859,0,0,0-.7539.6132L22.03,20.7605v.2568a3.66,3.66,0,0,1-2.87,1.3843,3.7058,3.7058,0,0,1-.7754-7.3291L18.4,15.07a3.85,3.85,0,0,1,.7607-.0772.4858.4858,0,0,0,0-.9716c-.1137,0-.2251.0087-.3354.017A3.7,3.7,0,0,1,22.4836,10.8ZM14.97,9.7234a7.5946,7.5946,0,0,1,2.7837,4.5293,4.647,4.647,0,0,0-2.2984,1.5947V13.9192a.4854.4854,0,1,0-.9707,0v.7476l-.9492-1.07a.4856.4856,0,1,0-.7265.6446l1.6757,1.8891v5.1309a7.6081,7.6081,0,0,1-1.5351-1.9751l-.0005-.0015-.001-.0014a7.21,7.21,0,0,1-.4272-.9439,7.5518,7.5518,0,0,1-.4678-2.5254.4805.4805,0,0,0,.001-.24,7.5065,7.5065,0,0,1,.4648-2.5078,7.2393,7.2393,0,0,1,.4282-.9444l.0015-.0029.001-.0029A7.6241,7.6241,0,0,1,14.97,9.7234Zm-7.2822.3052a5.631,5.631,0,0,1,4.2632,1.9453,8.0259,8.0259,0,0,0-.3423.7549,8.5064,8.5064,0,0,0-.5215,2.7675L8.172,18.03V13.9192a.4854.4854,0,1,0-.9707,0v.8223L5.0031,13.1194a.4854.4854,0,1,0-.5762.7812l.3247.24-.6147.4087a.4853.4853,0,0,0,.2685.89.48.48,0,0,0,.2686-.081l.9087-.604,1.6186,1.1948v5.4053a5.6729,5.6729,0,0,1,.4864-11.3252Z"/>
<path fill="white" d="M31.6926,11.2581a3.0584,3.0584,0,0,0-2.4258-1.85.4876.4876,0,0,0-.4473.1865,3.0512,3.0512,0,0,0,2.0352,4.8774.5243.5243,0,0,0,.0625.0039.488.488,0,0,0,.3867-.1914,3.0658,3.0658,0,0,0,.3887-3.0263ZM30.6916,13.45A2.08,2.08,0,0,1,29.43,10.429a2.08,2.08,0,0,1,1.2617,3.021Z"/>
<path fill="white" d="M18.0187,10.1477a.5606.5606,0,0,0,.0625-.0039,3.0517,3.0517,0,0,0,2.0362-4.8769A.4871.4871,0,0,0,19.67,5.08,3.0516,3.0516,0,0,0,17.632,9.9558.487.487,0,0,0,18.0187,10.1477Zm.1221-2.8437h0A2.0834,2.0834,0,0,1,19.506,6.1008a2.08,2.08,0,0,1-1.2617,3.021A2.0915,2.0915,0,0,1,18.1408,7.304Z"/>
<path fill="white" d="M2.7336,25.8142a.5376.5376,0,0,0,.0625.0039.4855.4855,0,0,0,.3867-.1919,3.0619,3.0619,0,0,0,.3877-3.0254,3.0549,3.0549,0,0,0-2.4258-1.85.4889.4889,0,0,0-.4473.187,3.0513,3.0513,0,0,0,2.0362,4.8765ZM1.3088,21.7717A2.0827,2.0827,0,0,1,2.674,22.9744v.0005a2.0905,2.0905,0,0,1-.1035,1.8173,2.08,2.08,0,0,1-1.2617-3.0205Z"/>
<path fill="white" d="M10.2687,8.6331a.4522.4522,0,0,0,.0625.0039.4866.4866,0,0,0,.3867-.1914A3.0511,3.0511,0,0,0,8.6808,3.57a.4861.4861,0,0,0-.4472.187,3.0514,3.0514,0,0,0,2.0351,4.8765ZM8.8449,4.5906a2.08,2.08,0,0,1,1.2607,3.021,2.08,2.08,0,0,1-1.2607-3.021Z"/>
</svg>