<?xml version="1.0" encoding="utf-8"?>
<!-- Generator: Adobe Illustrator 16.0.0, SVG Export Plug-In . SVG Version: 6.00 Build 0)  -->
<!DOCTYPE svg PUBLIC "-//W3C//DTD SVG 1.1//EN" "http://www.w3.org/Graphics/SVG/1.1/DTD/svg11.dtd">
<svg version="1.1" id="Layer_1" xmlns="http://www.w3.org/2000/svg" xmlns:xlink="http://www.w3.org/1999/xlink" x="0px" y="0px"
	 width="32px" height="32px" viewBox="0 0 128 128" enable-background="new 0 0 128 128" xml:space="preserve">
<g>
	<g>
		<path fill="green" d="M112,0H16C7.164,0,0,7.164,0,16v64c0,8.836,7.164,16,16,16h24l32,32V96h40c8.836,0,16-7.164,16-16V16
			C128,7.164,120.836,0,112,0z M120,80c0,4.414-3.59,8-8,8H64v20.688L43.313,88H16c-4.41,0-8-3.586-8-8V16c0-4.414,3.59-8,8-8h96
			c4.41,0,8,3.586,8,8V80z M24,32h80v-8H24V32z M24,48h80v-8H24V48z M24,64h48v-8H24V64z"/>
	</g>
</g>
</svg>
