
<svg version="1.1" id="Capa_1" xmlns="http://www.w3.org/2000/svg" xmlns:xlink="http://www.w3.org/1999/xlink" x="0px" y="0px"
	 width="32px" height="32px" viewBox="0 0 792 792" style="enable-background:new 0 0 792 792;" xml:space="preserve">
<g>
	<g>
		<path fill="white" d="M396.065,792l-10.155-17.896c-1.455-2.568-146.629-258.487-186.97-333.421c-25.627-47.655-55.543-125.467-55.543-187.953
			C143.397,113.377,256.721,0,396.012,0c139.275,0,252.591,113.377,252.591,252.73c0,60.357-27.957,141.853-54.273,187.899
			c-47.099,82.138-186.792,330.929-188.192,333.429L396.065,792z M396.012,23.22c-126.489,0-229.394,102.96-229.394,229.51
			c0,54.436,26.502,128.099,52.764,176.947C253.354,492.774,362.109,685,395.958,744.746
			c33.089-58.896,138.5-246.399,178.201-315.65c25.171-44.041,51.209-122.069,51.209-176.366
			C625.383,126.18,522.485,23.22,396.012,23.22z M396.012,366.649c-63.214,0-114.639-51.441-114.639-114.67
			c0-63.244,51.425-114.701,114.639-114.701c63.189,0,114.606,51.457,114.606,114.701
			C510.611,315.208,459.202,366.649,396.012,366.649z M396.012,160.499c-50.412,0-91.418,41.038-91.418,91.48
			c0,50.427,41.007,91.45,91.418,91.45c50.388,0,91.388-41.03,91.388-91.45C487.392,201.537,446.392,160.499,396.012,160.499z"/>
	</g>
</g>

</svg>
