<?xml version='1.0' encoding='iso-8859-1'?>
<svg version="1.1" xmlns="http://www.w3.org/2000/svg" viewBox="0 0 32 32" xmlns:xlink="http://www.w3.org/1999/xlink" enable-background="new 0 0 32 32">
  <g>
    <g>
      <path fill="white" d="m31,30h-1v-20c0-1.105-0.895-2-2-2h-4c-1.105,0-2,0.895-2,2v20h-2v-12c0-1.105-0.895-2-2-2h-4c-1.105,0-2,0.895-2,2v12h-2v-28c0-1.105-0.895-2-2-2h-4c-1.105,0-2,0.895-2,2v28h-1c-0.552,0-1,0.448-1,1s0.448,1 1,1h30c0.552,0 1-0.448 1-1s-0.448-1-1-1zm-23,0h-4v-28h4v28zm10,0h-4v-12h4v12zm10,0h-4v-20h4v20z"/>
    </g>
  </g>
</svg>
